<?xml version="1.0" encoding="utf-8"?>
<!-- Generator: Adobe Illustrator 15.0.0, SVG Export Plug-In . SVG Version: 6.00 Build 0)  -->
<svg version="1.2" baseProfile="tiny"
	 id="svg2" xmlns:dc="http://purl.org/dc/elements/1.1/" xmlns:cc="http://creativecommons.org/ns#" xmlns:rdf="http://www.w3.org/1999/02/22-rdf-syntax-ns#" xmlns:svg="http://www.w3.org/2000/svg"
	 xmlns="http://www.w3.org/2000/svg" xmlns:xlink="http://www.w3.org/1999/xlink" transform="scale(1)"
	 xml:space="preserve">
<path display="none" fill="#444443" d="M12.317,9.254l-3.064,3.064L29.936,33L33,29.936L12.317,9.254z M14.615,16.147l-3.83-3.829
	l1.532-1.532l3.829,3.83L14.615,16.147z M16.49,9.816c1.335,0.407,2.38,1.452,2.787,2.787c0.408-1.335,1.454-2.38,2.787-2.787
	c-1.333-0.408-2.378-1.452-2.787-2.788C18.87,8.363,17.825,9.408,16.49,9.816z M10.696,17.349C10.157,19.12,8.771,20.506,7,21.046
	c1.771,0.541,3.157,1.925,3.696,3.695c0.541-1.77,1.926-3.156,3.697-3.695C12.623,20.505,11.237,19.12,10.696,17.349z M21.045,13.92
	c0.945,0.288,1.682,1.027,1.971,1.972c0.288-0.945,1.027-1.684,1.971-1.972c-0.944-0.288-1.684-1.027-1.971-1.972
	C22.728,12.892,21.989,13.632,21.045,13.92z M25.84,7c-0.328,1.077-1.172,1.919-2.247,2.249c1.077,0.329,1.919,1.172,2.249,2.25
	c0.328-1.077,1.172-1.92,2.247-2.25C27.014,8.921,26.17,8.077,25.84,7z"/>
<g>
	<g>
		<g transform="translate(2.828625, 0.000000)">
			<path fill="#3C3C3C" d="M30.25,6.25c0-1.021-0.385-1.944-1.059-2.656c-0.681-0.716-1.59-1.091-2.547-1.091H9.936
				c-0.967,0-1.867,0.375-2.536,1.091C6.719,4.306,6.345,5.229,6.345,6.25v27.505c0,2.06,1.612,3.743,3.591,3.743h5.994h4.714h2.416
				h0.02v-7.68h7.17V6.25z M32.63,30.088c-0.039,0.63-0.287,1.225-0.699,1.675l-7.168,7.505C24.301,39.734,23.71,40,23.06,40h-2.416
				H15.93H9.936c-3.318,0-5.977-2.801-5.977-6.245V6.25c0-1.735,0.676-3.303,1.753-4.434C6.8,0.701,8.279,0,9.936,0h16.708
				c1.656,0,3.153,0.701,4.227,1.816c1.078,1.131,1.76,2.699,1.76,4.434v23.568V30.088z"/>
		</g>
		<polygon fill="#6FBF9E" points="33.078,24.795 4.541,24.795 4.541,7.295 33.078,7.295 		"/>
	</g>
</g>
<g>
	<path fill="#FFFFFF" d="M10.966,21.896c-1.108,0-1.745-0.442-2.217-1.404l-1.36-2.75c-0.251-0.502-0.399-0.975-0.399-1.552
		c0-0.65,0.118-1.049,0.413-1.641l1.36-2.735c0.503-1.02,1.138-1.419,2.277-1.419h2.513c0.325,0,0.739,0.177,0.739,0.74
		c0,0.532-0.399,0.739-0.739,0.739h-2.469c-0.635,0-0.739,0.059-1.02,0.62l-1.286,2.573c-0.192,0.399-0.31,0.666-0.31,1.124
		c0,0.414,0.133,0.666,0.31,1.02l1.256,2.557c0.296,0.607,0.444,0.651,1.109,0.651h2.41c0.325,0,0.739,0.177,0.739,0.74
		c0,0.531-0.399,0.736-0.739,0.736H10.966z"/>
	<path fill="#FFFFFF" d="M21.838,19.001c0.295,0.384,0.518,0.723,0.518,1.227c0,1.108-0.843,1.669-1.862,1.669h-3.253
		c-0.562,0-1.049-0.102-1.492-0.472c-0.4-0.325-0.696-0.857-0.696-1.375c0-0.472,0.267-0.887,0.784-0.887
		c0.429,0,0.695,0.356,0.695,0.755c0,0.443,0.235,0.503,0.65,0.503h3.207c0.12,0,0.49,0.045,0.49-0.177
		c0-0.118-0.209-0.34-0.267-0.429l-5.071-6.519c-0.312-0.399-0.489-0.695-0.489-1.212c0-0.592,0.281-1.094,0.784-1.419
		c0.414-0.267,0.753-0.267,1.227-0.267h3.134c0.562,0,1.035,0.119,1.463,0.488c0.384,0.34,0.694,0.887,0.694,1.404
		c0,0.473-0.236,0.856-0.768,0.856c-0.444,0-0.709-0.28-0.709-0.694c0-0.503-0.253-0.577-0.711-0.577h-3.134
		c-0.162,0-0.501-0.044-0.501,0.208c0,0.132,0.163,0.31,0.221,0.398L21.838,19.001z"/>
	<path fill="#FFFFFF" d="M28.985,13.502v-2.366c0-0.473,0.208-0.74,0.739-0.74c0.532,0,0.74,0.267,0.74,0.74v2.335
		c0,0.193-0.017,0.399-0.089,0.577l-2.823,7.2c-0.148,0.368-0.282,0.648-0.74,0.648c-0.457,0-0.592-0.28-0.737-0.648l-2.824-7.2
		c-0.074-0.178-0.089-0.383-0.089-0.577v-2.335c0-0.473,0.205-0.74,0.738-0.74c0.531,0,0.74,0.267,0.74,0.74v2.366l2.172,5.646
		L28.985,13.502z"/>
</g>
</svg>
