<?xml version="1.0" encoding="utf-8"?>
<!-- Generator: Adobe Illustrator 15.0.2, SVG Export Plug-In . SVG Version: 6.00 Build 0)  -->
<!DOCTYPE svg PUBLIC "-//W3C//DTD SVG 1.1//EN" "http://www.w3.org/Graphics/SVG/1.1/DTD/svg11.dtd">
<svg version="1.1"
	 id="svg2" transform="scale(1)" xmlns:dc="http://purl.org/dc/elements/1.1/" xmlns:cc="http://creativecommons.org/ns#" xmlns:rdf="http://www.w3.org/1999/02/22-rdf-syntax-ns#" xmlns:svg="http://www.w3.org/2000/svg"
	 xmlns="http://www.w3.org/2000/svg" xmlns:xlink="http://www.w3.org/1999/xlink" xml:space="preserve">
<path display="none" fill="#444443" d="M12.317,9.254l-3.063,3.063L29.936,33L33,29.936L12.317,9.254z M14.615,16.147l-3.83-3.829
	l1.531-1.531l3.829,3.83L14.615,16.147z M16.49,9.816c1.335,0.407,2.38,1.452,2.786,2.787c0.408-1.335,1.454-2.38,2.787-2.787
	c-1.333-0.407-2.378-1.452-2.787-2.788C18.87,8.363,17.825,9.408,16.49,9.816z M10.696,17.349C10.157,19.12,8.771,20.506,7,21.046
	c1.771,0.541,3.157,1.925,3.695,3.695c0.541-1.771,1.927-3.156,3.697-3.695C12.623,20.505,11.237,19.12,10.696,17.349z
	 M21.045,13.92c0.945,0.288,1.682,1.026,1.971,1.972c0.288-0.945,1.027-1.684,1.971-1.972c-0.943-0.288-1.684-1.027-1.971-1.973
	C22.728,12.892,21.989,13.632,21.045,13.92z M25.84,7c-0.328,1.077-1.172,1.919-2.247,2.249c1.077,0.329,1.919,1.172,2.249,2.25
	c0.328-1.077,1.172-1.92,2.247-2.25C27.014,8.921,26.17,8.077,25.84,7z"/>
<g>
	<g>
		<g transform="translate(2.828625, 0.000000)">
			<path fill="#3C3C3C" d="M30.25,6.25c0-1.021-0.385-1.944-1.059-2.656c-0.682-0.716-1.59-1.091-2.547-1.091H9.936
				c-0.967,0-1.867,0.375-2.536,1.091C6.719,4.306,6.345,5.229,6.345,6.25v27.505c0,2.06,1.611,3.743,3.591,3.743h5.994h4.714h2.416
				h0.02v-7.681h7.17V6.25z M32.63,30.088c-0.039,0.63-0.287,1.225-0.698,1.675l-7.168,7.505C24.301,39.734,23.71,40,23.06,40
				h-2.416H15.93H9.936c-3.318,0-5.978-2.802-5.978-6.245V6.25c0-1.735,0.676-3.304,1.753-4.435C6.8,0.701,8.279,0,9.936,0h16.708
				c1.655,0,3.152,0.701,4.227,1.815c1.078,1.131,1.76,2.699,1.76,4.435v23.567L32.63,30.088L32.63,30.088z"/>
		</g>
		<polygon fill="#6F96BF" points="33.078,24.795 4.541,24.795 4.541,7.295 33.078,7.295 		"/>
	</g>
</g>
<g>
	<path fill="#FFFFFF" d="M11.523,20.379h2.176c0.385,0,0.74,0.207,0.74,0.74c0,0.533-0.355,0.74-0.74,0.74H7.867
		c-0.385,0-0.74-0.207-0.74-0.74c0-0.533,0.355-0.74,0.74-0.74h2.176v-8.555H7.867c-0.385,0-0.74-0.207-0.74-0.74
		c0-0.533,0.355-0.74,0.74-0.74h5.832c0.385,0,0.74,0.207,0.74,0.74c0,0.533-0.355,0.74-0.74,0.74h-2.176V20.379z"/>
	<path fill="#FFFFFF" d="M17.013,11.823h-0.548c-0.488,0-0.903-0.178-0.903-0.74c0-0.533,0.4-0.74,0.858-0.74h2.472
		c1.154,0,1.731,0.474,2.235,1.48l1.302,2.605c0.296,0.607,0.444,1.036,0.444,1.717c0,0.592-0.163,1.095-0.429,1.628l-1.347,2.694
		c-0.518,1.051-1.184,1.391-2.338,1.391h-2.457c-0.385,0-0.74-0.207-0.74-0.74c0-0.533,0.355-0.74,0.74-0.74h0.71V11.823z
		 M18.493,20.379h0.281c0.622,0,0.77-0.074,1.036-0.622l1.302-2.635c0.163-0.34,0.281-0.592,0.281-0.962
		c0-0.503-0.163-0.785-0.37-1.214l-1.229-2.501c-0.311-0.636-0.444-0.622-1.125-0.622h-0.178V20.379z"/>
	<path fill="#FFFFFF" d="M23.998,10.344h6.572c0.385,0,0.74,0.207,0.74,0.74c0,0.533-0.355,0.74-0.74,0.74h-5.091v2.279h3.641
		c0.385,0,0.74,0.208,0.74,0.74s-0.355,0.74-0.74,0.74h-3.641v5.535c0,0.474-0.208,0.74-0.74,0.74s-0.74-0.267-0.74-0.74V10.344z"/>
</g>
<g>
	<path fill="#3C3C3C" d="M24.287,29.421l-6.313,6.313v-3.234H8.531c-2.261,0-3.036,0.213-3.9,0.937
		c-0.865,0.724-1.093,1.375-1.093,3.25l0.014,1.219h-2.39v-3.109c0-2.083,0.159-3.602,0.477-4.555
		c0.317-0.953,0.94-1.784,1.867-2.492c1.219-0.938,3.302-1.406,6.25-1.406h8.219v-3.234L24.287,29.421z"/>
</g>
</svg>
