<?xml version="1.0" encoding="utf-8"?>
<!-- Generator: Adobe Illustrator 15.0.0, SVG Export Plug-In . SVG Version: 6.00 Build 0)  -->
<svg version="1.2" baseProfile="tiny"
	 id="svg2" xmlns:dc="http://purl.org/dc/elements/1.1/" xmlns:cc="http://creativecommons.org/ns#" xmlns:rdf="http://www.w3.org/1999/02/22-rdf-syntax-ns#" xmlns:svg="http://www.w3.org/2000/svg"
	 xmlns="http://www.w3.org/2000/svg" xmlns:xlink="http://www.w3.org/1999/xlink" transform="scale(1)"
	 xml:space="preserve">
<path display="none" fill="#444443" d="M12.317,9.254l-3.064,3.064L29.936,33L33,29.936L12.317,9.254z M14.615,16.147l-3.83-3.829
	l1.532-1.532l3.829,3.83L14.615,16.147z M16.49,9.816c1.335,0.407,2.38,1.452,2.787,2.787c0.408-1.335,1.454-2.38,2.787-2.787
	c-1.333-0.408-2.378-1.452-2.787-2.788C18.87,8.363,17.825,9.408,16.49,9.816z M10.696,17.349C10.157,19.12,8.771,20.506,7,21.046
	c1.771,0.541,3.157,1.925,3.696,3.695c0.541-1.77,1.926-3.156,3.697-3.695C12.623,20.505,11.237,19.12,10.696,17.349z M21.045,13.92
	c0.945,0.288,1.682,1.027,1.971,1.972c0.288-0.945,1.027-1.684,1.971-1.972c-0.944-0.288-1.684-1.027-1.971-1.972
	C22.728,12.892,21.989,13.632,21.045,13.92z M25.84,7c-0.328,1.077-1.172,1.919-2.247,2.249c1.077,0.329,1.919,1.172,2.249,2.25
	c0.328-1.077,1.172-1.92,2.247-2.25C27.014,8.921,26.17,8.077,25.84,7z"/>
<path fill="#444443" d="M38.333,20c0,1.737-0.257,3.408-0.708,5h-3.501C34.681,23.435,35,21.754,35,20c0-8.27-6.729-15-15-15
	c-2.844,0-5.493,0.807-7.756,2.19l3.095,4.477H3.682L7.269,0l3.083,4.455C13.157,2.707,16.448,1.667,20,1.667
	C30.124,1.667,38.333,9.875,38.333,20z M27.744,32.819C25.481,34.196,22.837,35,20,35c-8.271,0-15-6.73-15-15
	c0-1.754,0.318-3.434,0.875-5h-3.5c-0.452,1.592-0.708,3.263-0.708,5c0,10.125,8.208,18.333,18.333,18.333
	c3.545,0,6.833-1.035,9.632-2.778L32.721,40l3.587-11.649H24.652L27.744,32.819z M23.653,13.484
	c-0.211-0.573-0.757-0.984-1.403-0.984c-0.974,0-1.736,0.934-1.428,1.937C21.655,14.141,22.581,13.61,23.653,13.484z M29,23.75
	c0,2.071-1.679,3.75-3.75,3.75c-3.03,0-3.118-3.092-5.25-3.092S17.78,27.5,14.75,27.5c-2.072,0-3.75-1.68-3.75-3.75
	c0-1.601,1.423-4.812,2.957-8.115c1.224-2.636,3.564-0.945,5.11-0.439c0.586,0.192,1.241,0.204,1.865,0
	c1.545-0.505,3.89-2.198,5.111,0.439C27.542,18.871,29,22.149,29,23.75z M17,23.75c0-1.24-1.009-2.25-2.25-2.25
	c-1.24,0-2.25,1.009-2.25,2.25c0,1.241,1.01,2.25,2.25,2.25C15.991,26,17,24.991,17,23.75z M20.75,22.25
	c0-0.414-0.335-0.75-0.75-0.75c-0.415,0-0.75,0.336-0.75,0.75S19.585,23,20,23C20.415,23,20.75,22.664,20.75,22.25z M27.5,23.75
	c0-1.24-1.009-2.25-2.25-2.25c-1.241,0-2.25,1.009-2.25,2.25c0,1.241,1.009,2.25,2.25,2.25C26.491,26,27.5,24.991,27.5,23.75z
	 M17.75,12.5c-0.646,0-1.192,0.411-1.403,0.984c1.072,0.126,1.998,0.657,2.831,0.953C19.485,13.434,18.724,12.5,17.75,12.5z"/>
</svg>
