<?xml version="1.0" encoding="utf-8"?>
<!-- Generator: Adobe Illustrator 15.0.0, SVG Export Plug-In . SVG Version: 6.00 Build 0)  -->
<svg version="1.2" baseProfile="tiny"
	 id="svg2" xmlns:dc="http://purl.org/dc/elements/1.1/" xmlns:cc="http://creativecommons.org/ns#" xmlns:rdf="http://www.w3.org/1999/02/22-rdf-syntax-ns#" xmlns:svg="http://www.w3.org/2000/svg"
	 xmlns="http://www.w3.org/2000/svg" xmlns:xlink="http://www.w3.org/1999/xlink" transform="scale(1)"
	 xml:space="preserve">
<path id="path34" inkscape:connector-curvature="0" fill="#B4B3B3" d="M0,8.69v22h40v-22"/>
<path display="none" fill="#444443" d="M12.317,9.254l-3.064,3.064L29.936,33L33,29.936L12.317,9.254z M14.615,16.147l-3.83-3.829
	l1.532-1.532l3.829,3.83L14.615,16.147z M16.49,9.816c1.335,0.407,2.38,1.452,2.787,2.787c0.408-1.335,1.454-2.38,2.787-2.787
	c-1.333-0.408-2.378-1.452-2.787-2.788C18.87,8.363,17.825,9.408,16.49,9.816z M10.696,17.349C10.157,19.12,8.771,20.506,7,21.046
	c1.771,0.541,3.157,1.925,3.696,3.695c0.541-1.77,1.926-3.156,3.697-3.695C12.623,20.505,11.237,19.12,10.696,17.349z M21.045,13.92
	c0.945,0.288,1.682,1.027,1.971,1.972c0.288-0.945,1.027-1.684,1.971-1.972c-0.944-0.288-1.684-1.027-1.971-1.972
	C22.728,12.892,21.989,13.632,21.045,13.92z M25.84,7c-0.328,1.077-1.172,1.919-2.247,2.249c1.077,0.329,1.919,1.172,2.249,2.25
	c0.328-1.077,1.172-1.92,2.247-2.25C27.014,8.921,26.17,8.077,25.84,7z"/>
<path id="path22_7_" inkscape:connector-curvature="0" fill="none" stroke="#B4B3B3" stroke-width="4" stroke-linecap="round" stroke-linejoin="round" stroke-miterlimit="10" d="
	M6.5,35c0,1.512,0,1.241,0,2"/>
<path id="path22_6_" inkscape:connector-curvature="0" fill="none" stroke="#B4B3B3" stroke-width="4" stroke-linecap="round" stroke-linejoin="round" stroke-miterlimit="10" d="
	M33.5,35c0,1.512,0,1.241,0,2"/>
<path id="path22_5_" inkscape:connector-curvature="0" fill="none" stroke="#B4B3B3" stroke-width="4" stroke-linecap="round" stroke-linejoin="round" stroke-miterlimit="10" d="
	M24.5,35c0,1.512,0,1.241,0,2"/>
<path id="path22_4_" inkscape:connector-curvature="0" fill="none" stroke="#B4B3B3" stroke-width="4" stroke-linecap="round" stroke-linejoin="round" stroke-miterlimit="10" d="
	M15.5,35c0,1.512,0,1.241,0,2"/>
<path id="path22_8_" inkscape:connector-curvature="0" fill="none" stroke="#B4B3B3" stroke-width="4" stroke-linecap="round" stroke-linejoin="round" stroke-miterlimit="10" d="
	M6.5,2c0,1.512,0,1.241,0,2"/>
<path id="path22_3_" inkscape:connector-curvature="0" fill="none" stroke="#B4B3B3" stroke-width="4" stroke-linecap="round" stroke-linejoin="round" stroke-miterlimit="10" d="
	M33.5,2c0,1.512,0,1.241,0,2"/>
<path id="path22_2_" inkscape:connector-curvature="0" fill="none" stroke="#B4B3B3" stroke-width="4" stroke-linecap="round" stroke-linejoin="round" stroke-miterlimit="10" d="
	M24.5,2c0,1.512,0,1.241,0,2"/>
<path id="path22_1_" inkscape:connector-curvature="0" fill="none" stroke="#B4B3B3" stroke-width="4" stroke-linecap="round" stroke-linejoin="round" stroke-miterlimit="10" d="
	M15.5,2c0,1.512,0,1.241,0,2"/>
<path fill="#444443" d="M9.362,4.355L5.12,8.597l28.638,28.636L38,32.991L9.362,4.355z M12.543,13.899L7.241,8.597l2.121-2.121
	l5.302,5.302L12.543,13.899z M15.14,5.132c1.849,0.564,3.296,2.011,3.858,3.859c0.565-1.848,2.013-3.295,3.858-3.859
	c-1.846-0.564-3.293-2.011-3.858-3.86C18.436,3.12,16.988,4.568,15.14,5.132z M7.118,15.563C6.371,18.015,4.452,19.934,2,20.682
	c2.452,0.749,4.371,2.667,5.118,5.117c0.748-2.451,2.667-4.37,5.118-5.117C9.785,19.932,7.866,18.015,7.118,15.563z M21.447,10.815
	c1.308,0.399,2.329,1.422,2.729,2.729c0.398-1.308,1.422-2.331,2.729-2.729c-1.307-0.399-2.33-1.422-2.729-2.73
	C23.776,9.392,22.754,10.416,21.447,10.815z M28.086,1.233c-0.454,1.491-1.623,2.658-3.111,3.114
	c1.491,0.456,2.657,1.623,3.114,3.115c0.454-1.49,1.623-2.658,3.111-3.115C29.712,3.893,28.543,2.725,28.086,1.233z"/>
</svg>
