  0
SECTION
  2
HEADER
  9
$ACADVER
  1
AC1009
  9
$INSBASE
 10
0.0
 20
0.0
 30
0.0
  9
$EXTMIN
 10
17204.260319513
 20
-30100.277252253869
 30
0.0
  9
$EXTMAX
 10
17254.768220528651
 20
-30069.769251238111
 30
0.0
  9
$LIMMIN
 10
0.0
 20
0.0
  9
$LIMMAX
 10
12.0
 20
9.0
  9
$ORTHOMODE
 70
     1
  9
$REGENMODE
 70
     1
  9
$FILLMODE
 70
     1
  9
$QTEXTMODE
 70
     0
  9
$MIRRTEXT
 70
     1
  9
$DRAGMODE
 70
     2
  9
$LTSCALE
 40
1.0
  9
$OSMODE
 70
  2095
  9
$ATTMODE
 70
     1
  9
$TEXTSIZE
 40
120.0
  9
$TRACEWID
 40
0.05
  9
$TEXTSTYLE
  7
STANDARD
  9
$CLAYER
  8
BOTTOM-METAL
  9
$CELTYPE
  6
BYLAYER
  9
$CECOLOR
 62
   256
  9
$DIMSCALE
 40
1.0
  9
$DIMASZ
 40
0.18
  9
$DIMEXO
 40
0.0625
  9
$DIMDLI
 40
0.38
  9
$DIMRND
 40
0.0
  9
$DIMDLE
 40
0.0
  9
$DIMEXE
 40
0.18
  9
$DIMTP
 40
0.0
  9
$DIMTM
 40
0.0
  9
$DIMTXT
 40
0.18
  9
$DIMCEN
 40
0.09
  9
$DIMTSZ
 40
0.0
  9
$DIMTOL
 70
     0
  9
$DIMLIM
 70
     0
  9
$DIMTIH
 70
     1
  9
$DIMTOH
 70
     1
  9
$DIMSE1
 70
     0
  9
$DIMSE2
 70
     0
  9
$DIMTAD
 70
     0
  9
$DIMZIN
 70
     0
  9
$DIMBLK
  1

  9
$DIMASO
 70
     1
  9
$DIMSHO
 70
     1
  9
$DIMPOST
  1

  9
$DIMAPOST
  1

  9
$DIMALT
 70
     0
  9
$DIMALTD
 70
     2
  9
$DIMALTF
 40
25.399999999999999
  9
$DIMLFAC
 40
1.0
  9
$DIMTOFL
 70
     0
  9
$DIMTVP
 40
0.0
  9
$DIMTIX
 70
     0
  9
$DIMSOXD
 70
     0
  9
$DIMSAH
 70
     0
  9
$DIMBLK1
  1

  9
$DIMBLK2
  1

  9
$DIMSTYLE
  2
STANDARD
  9
$DIMCLRD
 70
     0
  9
$DIMCLRE
 70
     0
  9
$DIMCLRT
 70
     0
  9
$DIMTFAC
 40
1.0
  9
$DIMGAP
 40
0.09
  9
$LUNITS
 70
     2
  9
$LUPREC
 70
     4
  9
$SKETCHINC
 40
0.1
  9
$FILLETRAD
 40
0.0
  9
$AUNITS
 70
     0
  9
$AUPREC
 70
     0
  9
$MENU
  1
acad
  9
$ELEVATION
 40
0.0
  9
$PELEVATION
 40
0.0
  9
$THICKNESS
 40
0.0
  9
$LIMCHECK
 70
     0
  9
$BLIPMODE
 70
     0
  9
$CHAMFERA
 40
0.0
  9
$CHAMFERB
 40
0.0
  9
$SKPOLY
 70
     0
  9
$TDCREATE
 40
2450668.1142180562
  9
$TDUPDATE
 40
2457331.6576189012
  9
$TDINDWG
 40
9.2863633217999997
  9
$TDUSRTIMER
 40
9.2863625810000006
  9
$USRTIMER
 70
     1
  9
$ANGBASE
 50
0.0
  9
$ANGDIR
 70
     0
  9
$PDMODE
 70
     0
  9
$PDSIZE
 40
0.0
  9
$PLINEWID
 40
0.0
  9
$COORDS
 70
     1
  9
$SPLFRAME
 70
     0
  9
$SPLINETYPE
 70
     6
  9
$SPLINESEGS
 70
     8
  9
$ATTDIA
 70
     0
  9
$ATTREQ
 70
     1
  9
$HANDLING
 70
     1
  9
$HANDSEED
  5
340F6
  9
$SURFTAB1
 70
     6
  9
$SURFTAB2
 70
     6
  9
$SURFTYPE
 70
     6
  9
$SURFU
 70
     6
  9
$SURFV
 70
     6
  9
$UCSNAME
  2

  9
$UCSORG
 10
0.0
 20
0.0
 30
0.0
  9
$UCSXDIR
 10
1.0
 20
0.0
 30
0.0
  9
$UCSYDIR
 10
0.0
 20
1.0
 30
0.0
  9
$PUCSNAME
  2

  9
$PUCSORG
 10
0.0
 20
0.0
 30
0.0
  9
$PUCSXDIR
 10
1.0
 20
0.0
 30
0.0
  9
$PUCSYDIR
 10
0.0
 20
1.0
 30
0.0
  9
$USERI1
 70
     0
  9
$USERI2
 70
     0
  9
$USERI3
 70
     0
  9
$USERI4
 70
     0
  9
$USERI5
 70
     0
  9
$USERR1
 40
0.0
  9
$USERR2
 40
0.0
  9
$USERR3
 40
0.0
  9
$USERR4
 40
0.0
  9
$USERR5
 40
0.0
  9
$WORLDVIEW
 70
     1
  9
$SHADEDGE
 70
     3
  9
$SHADEDIF
 70
    70
  9
$TILEMODE
 70
     1
  9
$MAXACTVP
 70
    16
  9
$PLIMCHECK
 70
     0
  9
$PEXTMIN
 10
1.0000000000000000E+020
 20
1.0000000000000000E+020
 30
1.0000000000000000E+020
  9
$PEXTMAX
 10
-1.0000000000000000E+020
 20
-1.0000000000000000E+020
 30
-1.0000000000000000E+020
  9
$PLIMMIN
 10
0.0
 20
0.0
  9
$PLIMMAX
 10
12.0
 20
9.0
  9
$UNITMODE
 70
     0
  9
$VISRETAIN
 70
     0
  9
$PLINEGEN
 70
     0
  9
$PSLTSCALE
 70
     0
  0
ENDSEC
  0
SECTION
  2
TABLES
  0
TABLE
  2
VPORT
 70
     2
  0
VPORT
  2
*ACTIVE
 70
     0
 10
0.0
 20
0.0
 11
1.0
 21
1.0
 12
17244.68116662278
 22
-30078.338656085089
 13
0.0
 23
0.0
 14
1.0
 24
1.0
 15
1.0
 25
1.0
 16
0.0
 26
0.0
 36
1.0
 17
0.0
 27
0.0
 37
0.0
 40
46.489488077750131
 41
2.1761467889908248
 42
50.0
 43
0.0
 44
0.0
 50
0.0
 51
0.0
 71
     0
 72
   100
 73
     1
 74
     1
 75
     0
 76
     0
 77
     0
 78
     0
  0
ENDTAB
  0
TABLE
  2
LTYPE
 70
     1
  0
LTYPE
  2
CONTINUOUS
 70
     0
  3
Solid line
 72
    65
 73
     0
 40
0.0
  0
ENDTAB
  0
TABLE
  2
LAYER
 70
     8
  0
LAYER
  2
0
 70
     0
 62
   253
  6
CONTINUOUS
  0
LAYER
  2
TOP-METAL
 70
     0
 62
    30
  6
CONTINUOUS
  0
LAYER
  2
CUT
 70
     0
 62
     7
  6
CONTINUOUS
  0
LAYER
  2
VIA
 70
     0
 62
     7
  6
CONTINUOUS
  0
LAYER
  2
BOTTOM-METAL
 70
     0
 62
    30
  6
CONTINUOUS
  0
LAYER
  2
HOLE
 70
     0
 62
     7
  6
CONTINUOUS
  0
LAYER
  2
TEXT-TOP
 70
     0
 62
     7
  6
CONTINUOUS
  0
LAYER
  2
LAND
 70
     0
 62
    10
  6
CONTINUOUS
  0
ENDTAB
  0
TABLE
  2
STYLE
 70
     1
  0
STYLE
  2
STANDARD
 70
     0
 40
0.0
 41
1.0
 50
0.0
 71
     0
 42
120.0
  3
txt
  4

  0
ENDTAB
  0
TABLE
  2
VIEW
 70
     0
  0
ENDTAB
  0
TABLE
  2
UCS
 70
     0
  0
ENDTAB
  0
TABLE
  2
APPID
 70
    17
  0
APPID
  2
ACAD
 70
     0
  0
APPID
  2
ACAD_MLEADERVER
 70
     0
  0
APPID
  2
MCAD_NO_VIS
 70
     0
  0
APPID
  2
ACAD_TEMP_GRAPHIC
 70
     0
  0
APPID
  2
AD_DRAW
 70
     0
  0
APPID
  2
ACATTRIBSERVICES
 70
     0
  0
APPID
  2
DESIGNERASSEMBLIES
 70
     0
  0
APPID
  2
ACADM_DIM_EDIT
 70
     0
  0
APPID
  2
AMDT_DM_ADJ
 70
     0
  0
APPID
  2
ACAD_EXEMPT_FROM_CAD_STANDARDS
 70
     0
  0
APPID
  2
ACAD_DSTYLE_DIMARC_LENGTH_
 70
     0
  0
APPID
  2
ACAD_DSTYLE_DIM_LINETYPE
 70
     0
  0
APPID
  2
ACAD_DSTYLE_DIM_EXT1_LINETYPE
 70
     0
  0
APPID
  2
ACAD_DSTYLE_DIM_EXT2_LINETYPE
 70
     0
  0
APPID
  2
ACAECLAYERSTANDARD
 70
     0
  0
APPID
  2
ACAD_PSEXT
 70
     0
  0
APPID
  2
ACAD_DSTYLE_DIMJOGGED_JOGA
 70
     0
  0
ENDTAB
  0
TABLE
  2
DIMSTYLE
 70
     1
  0
DIMSTYLE
  2
STANDARD
 70
     0
  3

  4

  5

  6

  7

 40
1.0
 41
0.18
 42
0.0625
 43
0.38
 44
0.18
 45
0.0
 46
0.0
 47
0.0
 48
0.0
140
0.18
141
0.09
142
0.0
143
25.399999999999999
144
1.0
145
0.0
146
1.0
147
0.09
 71
     0
 72
     0
 73
     1
 74
     1
 75
     0
 76
     0
 77
     0
 78
     0
170
     0
171
     2
172
     0
173
     0
174
     0
175
     0
176
     0
177
     0
178
     0
  0
ENDTAB
  0
ENDSEC
  0
SECTION
  2
BLOCKS
  0
BLOCK
  8
0
  2
$MODEL_SPACE
 70
     0
 10
0.0
 20
0.0
 30
0.0
  3
$MODEL_SPACE
  1

  0
ENDBLK
  5
3B
  8
0
  0
BLOCK
 67
     1
  8
0
  2
$PAPER_SPACE
 70
     0
 10
0.0
 20
0.0
 30
0.0
  3
$PAPER_SPACE
  1

  0
ENDBLK
  5
39
 67
     1
  8
0
  0
ENDSEC
  0
SECTION
  2
ENTITIES
  0
LINE
  5
33E9F
  8
TOP-METAL
 10
17204.514320021011
 20
-30070.023251746112
 30
0.0
 11
17226.380273020852
 21
-30070.023251746112
 31
0.0
  0
LINE
  5
33EA0
  8
TOP-METAL
 10
17226.380273020852
 20
-30070.023251746112
 30
0.0
 11
17226.380273020852
 21
-30070.31525374611
 31
0.0
  0
LINE
  5
33EA1
  8
TOP-METAL
 10
17226.380273020852
 20
-30070.31525374611
 30
0.0
 11
17227.647771020838
 21
-30070.31525374611
 31
0.0
  0
LINE
  5
33EA2
  8
TOP-METAL
 10
17227.647771020838
 20
-30070.31525374611
 30
0.0
 11
17227.647771020838
 21
-30070.823253746101
 31
0.0
  0
LINE
  5
33EA3
  8
TOP-METAL
 10
17227.647771020838
 20
-30070.823253746101
 30
0.0
 11
17226.380273020852
 21
-30070.823253746101
 31
0.0
  0
LINE
  5
33EA4
  8
TOP-METAL
 10
17226.380273020852
 20
-30070.823253746101
 30
0.0
 11
17226.380273020852
 21
-30071.243253746099
 31
0.0
  0
LINE
  5
33EA5
  8
TOP-METAL
 10
17226.380273020852
 20
-30071.243253746099
 30
0.0
 11
17220.2789400209
 21
-30071.243253746099
 31
0.0
  0
LINE
  5
33EA6
  8
TOP-METAL
 10
17221.569439659259
 20
-30073.47845174609
 30
0.0
 11
17226.880273020841
 21
-30073.47845174609
 31
0.0
  0
LINE
  5
33EA7
  8
TOP-METAL
 10
17226.880273020841
 20
-30073.47845174609
 30
0.0
 11
17226.880273020841
 21
-30073.018851746088
 31
0.0
  0
LINE
  5
33EA8
  8
TOP-METAL
 10
17226.880273020841
 20
-30073.018851746088
 30
0.0
 11
17232.647770020802
 21
-30073.018851746088
 31
0.0
  0
LINE
  5
33EA9
  8
TOP-METAL
 10
17232.647770020802
 20
-30073.018851746088
 30
0.0
 11
17232.647770020802
 21
-30070.823253746101
 31
0.0
  0
LINE
  5
33EAA
  8
TOP-METAL
 10
17232.647770020802
 20
-30070.823253746101
 30
0.0
 11
17231.431770020808
 21
-30070.823253746101
 31
0.0
  0
LINE
  5
33EAB
  8
TOP-METAL
 10
17231.431770020808
 20
-30070.823253746101
 30
0.0
 11
17231.431770020808
 21
-30070.31525374611
 31
0.0
  0
LINE
  5
33EAC
  8
TOP-METAL
 10
17231.431770020808
 20
-30070.31525374611
 30
0.0
 11
17232.647770020802
 21
-30070.31525374611
 31
0.0
  0
LINE
  5
33EAD
  8
TOP-METAL
 10
17232.647770020802
 20
-30070.31525374611
 30
0.0
 11
17232.647770020802
 21
-30070.023251746112
 31
0.0
  0
LINE
  5
33EAE
  8
TOP-METAL
 10
17232.647770020802
 20
-30070.023251746112
 30
0.0
 11
17254.514220020639
 21
-30070.023251746112
 31
0.0
  0
LINE
  5
33EAF
  8
TOP-METAL
 10
17254.514220020639
 20
-30070.023251746112
 30
0.0
 11
17254.514220020639
 21
-30100.023251745872
 31
0.0
  0
LINE
  5
33EB0
  8
TOP-METAL
 10
17254.514220020639
 20
-30100.023251745872
 30
0.0
 11
17204.514320021011
 21
-30100.023251745879
 31
0.0
  0
LINE
  5
33EB1
  8
TOP-METAL
 10
17204.514320021011
 20
-30100.023251745872
 30
0.0
 11
17204.514320021011
 21
-30070.023251746112
 31
0.0
  0
LINE
  5
33EB2
  8
TOP-METAL
 10
17224.864267988862
 20
-30071.751253746101
 30
0.0
 11
17226.380273020852
 21
-30071.751253746101
 31
0.0
  0
LINE
  5
33EB3
  8
TOP-METAL
 10
17226.380273020852
 20
-30071.751253746101
 30
0.0
 11
17226.380273020852
 21
-30072.010854746099
 31
0.0
  0
LINE
  5
33EB4
  8
TOP-METAL
 10
17226.380273020852
 20
-30072.010854746099
 30
0.0
 11
17227.647771020838
 21
-30072.010854746099
 31
0.0
  0
LINE
  5
33EB5
  8
TOP-METAL
 10
17227.647771020838
 20
-30072.010854746099
 30
0.0
 11
17227.647771020838
 21
-30072.518851746088
 31
0.0
  0
LINE
  5
33EB6
  8
TOP-METAL
 10
17227.647771020838
 20
-30072.518851746088
 30
0.0
 11
17226.380273020852
 21
-30072.518851746088
 31
0.0
  0
LINE
  5
33EB7
  8
TOP-METAL
 10
17226.380273020852
 20
-30072.518851746088
 30
0.0
 11
17226.380273020852
 21
-30072.970451746089
 31
0.0
  0
LINE
  5
33EB8
  8
TOP-METAL
 10
17226.380273020852
 20
-30072.970451746089
 30
0.0
 11
17224.864267988862
 21
-30072.970451746089
 31
0.0
  0
LINE
  5
33EB9
  8
TOP-METAL
 10
17224.864267988862
 20
-30072.970451746089
 30
0.0
 11
17224.864267988862
 21
-30071.751253746101
 31
0.0
  0
LINE
  5
33EBA
  8
TOP-METAL
 10
17231.431770020808
 20
-30072.010854746099
 30
0.0
 11
17232.139770020811
 21
-30072.010854746099
 31
0.0
  0
LINE
  5
33EBB
  8
TOP-METAL
 10
17232.139770020811
 20
-30072.010854746099
 30
0.0
 11
17232.139770020811
 21
-30072.518851746088
 31
0.0
  0
LINE
  5
33EBC
  8
TOP-METAL
 10
17232.139770020811
 20
-30072.518851746088
 30
0.0
 11
17231.431770020808
 21
-30072.518851746088
 31
0.0
  0
LINE
  5
33EBD
  8
TOP-METAL
 10
17231.431770020808
 20
-30072.518851746088
 30
0.0
 11
17231.431770020808
 21
-30072.010854746099
 31
0.0
  0
LINE
  5
33EBE
  8
TOP-METAL
 10
17224.364267988862
 20
-30071.751253746101
 30
0.0
 11
17224.364267988862
 21
-30072.970451746089
 31
0.0
  0
LINE
  5
33EBF
  8
TOP-METAL
 10
17224.364267988862
 20
-30072.970451746089
 30
0.0
 11
17221.276144549342
 21
-30072.970451746089
 31
0.0
  0
LINE
  5
33EC0
  8
TOP-METAL
 10
17220.572235130821
 20
-30071.751253746101
 30
0.0
 11
17224.364267988862
 21
-30071.751253746101
 31
0.0
  0
LINE
  5
33EC1
  8
BOTTOM-METAL
 10
17254.514220020639
 20
-30070.023251746112
 30
0.0
 11
17254.514220020639
 21
-30100.023251745872
 31
0.0
  0
LINE
  5
33EC2
  8
BOTTOM-METAL
 10
17254.514220020639
 20
-30100.023251745872
 30
0.0
 11
17204.514320021011
 21
-30100.023251745879
 31
0.0
  0
LINE
  5
33EC3
  8
BOTTOM-METAL
 10
17204.514320021011
 20
-30100.023251745872
 30
0.0
 11
17204.514320021011
 21
-30073.667175261238
 31
0.0
  0
LINE
  5
33EC4
  8
BOTTOM-METAL
 10
17204.514320021011
 20
-30073.661309370771
 30
0.0
 11
17204.514320021011
 21
-30070.023251746112
 31
0.0
  0
LINE
  5
33EC5
  8
CUT
 10
17204.260319513
 20
-30100.277252253869
 30
0.0
 11
17254.768220528651
 21
-30100.277252253869
 31
0.0
  0
LINE
  5
33EC6
  8
CUT
 10
17254.768220528651
 20
-30100.277252253869
 30
0.0
 11
17254.768220528651
 21
-30069.769251238111
 31
0.0
  0
LINE
  5
33EC7
  8
CUT
 10
17254.768220528651
 20
-30069.769251238111
 30
0.0
 11
17204.260319513
 21
-30069.769251238111
 31
0.0
  0
LINE
  5
33EC8
  8
CUT
 10
17204.260319513
 20
-30069.769251238111
 30
0.0
 11
17204.260319513
 21
-30100.277252253869
 31
0.0
  0
CIRCLE
  5
33EC9
  8
VIA
 10
17205.530222414
 20
-30099.007249713879
 30
0.0
 40
0.3556007111985776
  0
CIRCLE
  5
33ECA
  8
VIA
 10
17212.524126401771
 20
-30099.007249713879
 30
0.0
 40
0.3556007111985776
  0
CIRCLE
  5
33ECB
  8
VIA
 10
17220.499742352938
 20
-30099.007249713879
 30
0.0
 40
0.3556007111985776
  0
CIRCLE
  5
33ECC
  8
VIA
 10
17216.511934377359
 20
-30099.007249713879
 30
0.0
 40
0.3556007111985776
  0
CIRCLE
  5
33ECD
  8
VIA
 10
17214.518030389561
 20
-30099.007249713879
 30
0.0
 40
0.3556007111985776
  0
CIRCLE
  5
33ECE
  8
VIA
 10
17218.505838365149
 20
-30099.007249713879
 30
0.0
 40
0.3556007111985776
  0
CIRCLE
  5
33ECF
  8
VIA
 10
17226.481454316308
 20
-30099.007249713879
 30
0.0
 40
0.3556007111985776
  0
CIRCLE
  5
33ED0
  8
VIA
 10
17224.487550328518
 20
-30099.007249713879
 30
0.0
 40
0.3556007111985776
  0
CIRCLE
  5
33ED1
  8
VIA
 10
17222.493646340728
 20
-30099.007249713879
 30
0.0
 40
0.3556007111985776
  0
CIRCLE
  5
33ED2
  8
VIA
 10
17228.475358304109
 20
-30099.007249713879
 30
0.0
 40
0.3556007111985776
  0
CIRCLE
  5
33ED3
  8
VIA
 10
17238.44487824307
 20
-30099.007249713879
 30
0.0
 40
0.3556007111985776
  0
CIRCLE
  5
33ED4
  8
VIA
 10
17234.45707026749
 20
-30099.007249713879
 30
0.0
 40
0.3556007111985776
  0
CIRCLE
  5
33ED5
  8
VIA
 10
17230.469262291899
 20
-30099.007249713879
 30
0.0
 40
0.3556007111985776
  0
CIRCLE
  5
33ED6
  8
VIA
 10
17232.463166279689
 20
-30099.007249713879
 30
0.0
 40
0.3556007111985776
  0
CIRCLE
  5
33ED7
  8
VIA
 10
17236.450974255269
 20
-30099.007249713879
 30
0.0
 40
0.3556007111985776
  0
CIRCLE
  5
33ED8
  8
VIA
 10
17240.43878223086
 20
-30099.007249713879
 30
0.0
 40
0.3556007111985776
  0
CIRCLE
  5
33ED9
  8
VIA
 10
17242.43268621865
 20
-30099.007249713879
 30
0.0
 40
0.3556007111985776
  0
CIRCLE
  5
33EDA
  8
VIA
 10
17253.414398182009
 20
-30099.007249713879
 30
0.0
 40
0.3556007111985776
  0
CIRCLE
  5
33EDB
  8
VIA
 10
17244.42659020644
 20
-30099.007249713879
 30
0.0
 40
0.3556007111985776
  0
CIRCLE
  5
33EDC
  8
VIA
 10
17246.420494194241
 20
-30099.007249713879
 30
0.0
 40
0.3556007111985776
  0
LINE
  5
33EDD
  8
TOP-METAL
 10
17217.99476229912
 20
-30079.66997455453
 30
0.0
 11
17221.569439659259
 21
-30073.47845174609
 31
0.0
  0
LINE
  5
33EDE
  8
TOP-METAL
 10
17217.194437886861
 20
-30080.04017506709
 30
0.0
 11
17221.276144549342
 21
-30072.970451746089
 31
0.0
  0
LINE
  5
33EDF
  8
TOP-METAL
 10
17216.138577602858
 20
-30079.430573847891
 30
0.0
 11
17220.572235130821
 21
-30071.751253746101
 31
0.0
  0
LINE
  5
33EE0
  8
TOP-METAL
 10
17216.059018445099
 20
-30078.55237231934
 30
0.0
 11
17220.2789400209
 21
-30071.243253746099
 31
0.0
  0
ARC
  5
33EE1
  8
TOP-METAL
 10
17216.257813447071
 20
-30080.443253746031
 30
0.0
 40
1.019675322164957
 50
96.715251747164217
 51
23.284748251230958
  0
ARC
  5
33EE2
  8
TOP-METAL
 10
17216.247656136151
 20
-30080.460846724622
 30
0.0
 40
1.9177744221111199
 50
95.644901879413666
 51
24.355098121029791
  0
CIRCLE
  5
33EE3
  8
BOTTOM-METAL
 10
17216.256068143492
 20
-30080.44627670051
 30
0.0
 40
1.0160020319959351
  0
ARC
  5
33EE4
  8
BOTTOM-METAL
 10
17216.256068143492
 20
-30080.44627670051
 30
0.0
 40
1.9050038099923789
 50
150.00000000078879
 51
149.8472110780489
  0
LINE
  5
33EE5
  8
BOTTOM-METAL
 10
17214.606286449729
 20
-30079.493774795519
 30
0.0
 11
17204.514320021011
 21
-30073.667175261238
 31
0.0
  0
LINE
  5
33EE6
  8
BOTTOM-METAL
 10
17214.608832320711
 20
-30079.489378764349
 30
0.0
 11
17204.514320021011
 21
-30073.661309370771
 31
0.0
  0
CIRCLE
  5
33EE7
  8
HOLE
 10
17217.194211345279
 20
-30084.002975373402
 30
0.0
 40
0.7620015239969519
  0
CIRCLE
  5
33EE8
  8
HOLE
 10
17219.785016526868
 20
-30079.515569166379
 30
0.0
 40
0.7620015239969519
  0
CIRCLE
  5
33EE9
  8
VIA
 10
17214.437777435222
 20
-30078.172737744379
 30
0.0
 40
0.3556007111985776
  0
CIRCLE
  5
33EEA
  8
HOLE
 10
17215.297610319849
 20
-30076.924763984782
 30
0.0
 40
0.7620015239969519
  0
CIRCLE
  5
33EEB
  8
HOLE
 10
17216.245910832571
 20
-30080.463869679101
 30
0.0
 40
0.7620015239969519
  0
CIRCLE
  5
33EEC
  8
VIA
 10
17213.43848863665
 20
-30079.90355671494
 30
0.0
 40
0.3556007111985776
  0
CIRCLE
  5
33EED
  8
VIA
 10
17215.646517940379
 20
-30083.305452228851
 30
0.0
 40
0.3556007111985776
  0
CIRCLE
  5
33EEE
  8
HOLE
 10
17212.706805138248
 20
-30081.412170191819
 30
0.0
 40
0.7620015239969519
  0
CIRCLE
  5
33EEF
  8
VIA
 10
17214.08472460361
 20
-30082.40375042547
 30
0.0
 40
0.3556007111985776
  0
CIRCLE
  5
33EF0
  8
VIA
 10
17219.178150168609
 20
-30080.909593218072
 30
0.0
 40
0.3556007111985776
  0
CIRCLE
  5
33EF1
  8
VIA
 10
17218.178861370048
 20
-30082.64041218863
 30
0.0
 40
0.3556007111985776
  0
CIRCLE
  5
33EF2
  8
VIA
 10
17220.232008512809
 20
-30077.890454634358
 30
0.0
 40
0.3556007111985776
  0
CIRCLE
  5
33EF3
  8
VIA
 10
17221.23129731138
 20
-30076.1596356638
 30
0.0
 40
0.3556007111985776
  0
CIRCLE
  5
33EF4
  8
VIA
 10
17216.481504795669
 20
-30075.725100303662
 30
0.0
 40
0.3556007111985776
  0
CIRCLE
  5
33EF5
  8
VIA
 10
17217.48079359423
 20
-30073.994281333111
 30
0.0
 40
0.3556007111985776
  0
CIRCLE
  5
33EF6
  8
VIA
 10
17221.822317649021
 20
-30075.140033656549
 30
0.0
 40
0.3556007111985776
  0
LINE
  5
33EF7
  8
BOTTOM-METAL
 10
17204.514320021011
 20
-30070.023251746112
 30
0.0
 11
17254.514220020639
 21
-30070.023251746112
 31
0.0
  0
CIRCLE
  5
33EF8
  8
VIA
 10
17222.48323073209
 20
-30074.091221746079
 30
0.0
 40
0.3556007111985776
  0
CIRCLE
  5
33EF9
  8
VIA
 10
17224.283230732071
 20
-30074.091221746079
 30
0.0
 40
0.3556007111985776
  0
CIRCLE
  5
33EFA
  8
VIA
 10
17226.083230732049
 20
-30074.091221746079
 30
0.0
 40
0.3556007111985776
  0
CIRCLE
  5
33EFB
  8
VIA
 10
17227.896099732039
 20
-30073.623851746092
 30
0.0
 40
0.3556007111985776
  0
CIRCLE
  5
33EFC
  8
VIA
 10
17229.694670732031
 20
-30073.623851746092
 30
0.0
 40
0.3556007111985776
  0
CIRCLE
  5
33EFD
  8
VIA
 10
17231.493250732012
 20
-30073.623851746092
 30
0.0
 40
0.3556007111985776
  0
CIRCLE
  5
33EFE
  8
VIA
 10
17233.291820732
 20
-30073.623851746092
 30
0.0
 40
0.3556007111985776
  0
CIRCLE
  5
33EFF
  8
VIA
 10
17233.291820732
 20
-30072.229951746089
 30
0.0
 40
0.3556007111985776
  0
CIRCLE
  5
33F00
  8
VIA
 10
17233.291820732
 20
-30070.836055746109
 30
0.0
 40
0.3556007111985776
  0
CIRCLE
  5
33F01
  8
VIA
 10
17235.090390731981
 20
-30070.836055746109
 30
0.0
 40
0.3556007111985776
  0
CIRCLE
  5
33F02
  8
VIA
 10
17237.088970731969
 20
-30070.836055746109
 30
0.0
 40
0.3556007111985776
  0
CIRCLE
  5
33F03
  8
VIA
 10
17221.642780732091
 20
-30070.636055746108
 30
0.0
 40
0.3556007111985776
  0
CIRCLE
  5
33F04
  8
VIA
 10
17223.441350732079
 20
-30070.636055746108
 30
0.0
 40
0.3556007111985776
  0
CIRCLE
  5
33F05
  8
VIA
 10
17225.43993073206
 20
-30070.636055746108
 30
0.0
 40
0.3556007111985776
  0
CIRCLE
  5
33F06
  8
VIA
 10
17219.644210732109
 20
-30070.636055746108
 30
0.0
 40
0.3556007111985776
  0
CIRCLE
  5
33F07
  8
VIA
 10
17217.89060073212
 20
-30070.836055746109
 30
0.0
 40
0.3556007111985776
  0
CIRCLE
  5
33F08
  8
VIA
 10
17215.892020732132
 20
-30070.836055746109
 30
0.0
 40
0.3556007111985776
  0
CIRCLE
  5
33F09
  8
VIA
 10
17218.480082392802
 20
-30072.263462362549
 30
0.0
 40
0.3556007111985776
  0
CIRCLE
  5
33F0A
  8
VIA
 10
17205.530222414
 20
-30080.83605337163
 30
0.0
 40
0.3556007111985776
  0
CIRCLE
  5
33F0B
  8
VIA
 10
17205.530222414
 20
-30090.80557331059
 30
0.0
 40
0.3556007111985776
  0
CIRCLE
  5
33F0C
  8
VIA
 10
17205.530222414
 20
-30082.829957359419
 30
0.0
 40
0.3556007111985776
  0
CIRCLE
  5
33F0D
  8
VIA
 10
17205.530222414
 20
-30084.823861347209
 30
0.0
 40
0.3556007111985776
  0
CIRCLE
  5
33F0E
  8
VIA
 10
17205.530222414
 20
-30086.817765335021
 30
0.0
 40
0.3556007111985776
  0
CIRCLE
  5
33F0F
  8
VIA
 10
17205.530222414
 20
-30088.8116693228
 30
0.0
 40
0.3556007111985776
  0
CIRCLE
  5
33F10
  8
VIA
 10
17205.530222414
 20
-30092.799477298391
 30
0.0
 40
0.3556007111985776
  0
CIRCLE
  5
33F11
  8
VIA
 10
17205.530222414
 20
-30094.79338128617
 30
0.0
 40
0.3556007111985776
  0
CIRCLE
  5
33F12
  8
VIA
 10
17205.530222414
 20
-30096.787285273971
 30
0.0
 40
0.3556007111985776
  0
CIRCLE
  5
33F13
  8
VIA
 10
17253.414398182009
 20
-30084.823861347209
 30
0.0
 40
0.3556007111985776
  0
CIRCLE
  5
33F14
  8
VIA
 10
17253.414398182009
 20
-30080.83605337163
 30
0.0
 40
0.3556007111985776
  0
CIRCLE
  5
33F15
  8
VIA
 10
17253.414398182009
 20
-30082.829957359419
 30
0.0
 40
0.3556007111985776
  0
CIRCLE
  5
33F16
  8
VIA
 10
17253.414398182009
 20
-30086.817765335021
 30
0.0
 40
0.3556007111985776
  0
CIRCLE
  5
33F17
  8
VIA
 10
17253.414398182009
 20
-30088.8116693228
 30
0.0
 40
0.3556007111985776
  0
CIRCLE
  5
33F18
  8
VIA
 10
17253.414398182009
 20
-30090.80557331059
 30
0.0
 40
0.3556007111985776
  0
CIRCLE
  5
33F19
  8
VIA
 10
17253.414398182009
 20
-30092.799477298391
 30
0.0
 40
0.3556007111985776
  0
CIRCLE
  5
33F1A
  8
VIA
 10
17253.414398182009
 20
-30094.79338128617
 30
0.0
 40
0.3556007111985776
  0
CIRCLE
  5
33F1B
  8
VIA
 10
17253.414398182009
 20
-30096.787285273971
 30
0.0
 40
0.3556007111985776
  0
CIRCLE
  5
33F1C
  8
VIA
 10
17205.530222414
 20
-30076.848245396031
 30
0.0
 40
0.3556007111985776
  0
CIRCLE
  5
33F1D
  8
VIA
 10
17205.530222414
 20
-30070.866533432669
 30
0.0
 40
0.3556007111985776
  0
CIRCLE
  5
33F1E
  8
VIA
 10
17205.530222414
 20
-30072.860437420459
 30
0.0
 40
0.3556007111985776
  0
CIRCLE
  5
33F1F
  8
VIA
 10
17205.530222414
 20
-30074.85434140826
 30
0.0
 40
0.3556007111985776
  0
CIRCLE
  5
33F20
  8
VIA
 10
17205.530222414
 20
-30078.84214938384
 30
0.0
 40
0.3556007111985776
  0
CIRCLE
  5
33F21
  8
VIA
 10
17253.414398182009
 20
-30072.860437420459
 30
0.0
 40
0.3556007111985776
  0
CIRCLE
  5
33F22
  8
VIA
 10
17253.414398182009
 20
-30070.866533432669
 30
0.0
 40
0.3556007111985776
  0
CIRCLE
  5
33F23
  8
VIA
 10
17253.414398182009
 20
-30074.85434140826
 30
0.0
 40
0.3556007111985776
  0
CIRCLE
  5
33F24
  8
VIA
 10
17253.414398182009
 20
-30076.848245396031
 30
0.0
 40
0.3556007111985776
  0
CIRCLE
  5
33F25
  8
VIA
 10
17253.414398182009
 20
-30078.84214938384
 30
0.0
 40
0.3556007111985776
  0
CIRCLE
  5
33F26
  8
VIA
 10
17238.44487824307
 20
-30070.866533432669
 30
0.0
 40
0.3556007111985776
  0
CIRCLE
  5
33F27
  8
VIA
 10
17240.43878223086
 20
-30070.866533432669
 30
0.0
 40
0.3556007111985776
  0
CIRCLE
  5
33F28
  8
VIA
 10
17242.43268621865
 20
-30070.866533432669
 30
0.0
 40
0.3556007111985776
  0
CIRCLE
  5
33F29
  8
VIA
 10
17244.42659020644
 20
-30070.866533432669
 30
0.0
 40
0.3556007111985776
  0
CIRCLE
  5
33F2A
  8
VIA
 10
17246.420494194241
 20
-30070.866533432669
 30
0.0
 40
0.3556007111985776
  0
CIRCLE
  5
33F2B
  8
VIA
 10
17212.524126401771
 20
-30070.866533432669
 30
0.0
 40
0.3556007111985776
  0
CIRCLE
  5
33F2C
  8
VIA
 10
17214.518030389561
 20
-30070.866533432669
 30
0.0
 40
0.3556007111985776
  0
CIRCLE
  5
33F2E
  8
VIA
 10
17208.536318426191
 20
-30099.007249713879
 30
0.0
 40
0.3556007111985776
  0
CIRCLE
  5
33F2F
  8
VIA
 10
17206.542414438401
 20
-30099.007249713879
 30
0.0
 40
0.3556007111985776
  0
CIRCLE
  5
33F30
  8
VIA
 10
17210.530222413981
 20
-30099.007249713879
 30
0.0
 40
0.3556007111985776
  0
CIRCLE
  5
33F31
  8
VIA
 10
17250.408302169821
 20
-30099.007249713879
 30
0.0
 40
0.3556007111985776
  0
CIRCLE
  5
33F32
  8
VIA
 10
17246.420494194241
 20
-30099.007249713879
 30
0.0
 40
0.3556007111985776
  0
CIRCLE
  5
33F33
  8
VIA
 10
17248.41439818202
 20
-30099.007249713879
 30
0.0
 40
0.3556007111985776
  0
CIRCLE
  5
33F34
  8
VIA
 10
17252.402206157611
 20
-30099.007249713879
 30
0.0
 40
0.3556007111985776
  0
CIRCLE
  5
33F35
  8
VIA
 10
17250.408302169821
 20
-30070.866533432669
 30
0.0
 40
0.3556007111985776
  0
CIRCLE
  5
33F36
  8
VIA
 10
17248.41439818202
 20
-30070.866533432669
 30
0.0
 40
0.3556007111985776
  0
CIRCLE
  5
33F37
  8
VIA
 10
17252.402206157611
 20
-30070.866533432669
 30
0.0
 40
0.3556007111985776
  0
CIRCLE
  5
33F38
  8
VIA
 10
17208.536318426191
 20
-30070.866533432669
 30
0.0
 40
0.3556007111985776
  0
CIRCLE
  5
33F39
  8
VIA
 10
17206.542414438401
 20
-30070.866533432669
 30
0.0
 40
0.3556007111985776
  0
CIRCLE
  5
33F3A
  8
VIA
 10
17210.530222413981
 20
-30070.866533432669
 30
0.0
 40
0.3556007111985776
  0
TEXT
  5
340EC
  8
TEXT-TOP
 10
17220.646320809468
 20
-30089.450154744041
 30
0.0
 40
1.5240030479939031
  1
AT5020-PAA-V5
  0
ENDSEC
  0
EOF
